<svg id="Layer_1" enable-background="new 0 0 512.339 512.339" height="512" viewBox="0 0 512.339 512.339" width="512" xmlns="http://www.w3.org/2000/svg"><path d="m491.782 157.345c-71.939-168.819-288.821-210.639-417.031-81.99-99.046 99.384-100.393 261.24.311 361.942 48.38 48.381 112.705 75.025 181.126 75.025 9.016 0 16.323-7.308 16.323-16.323s-7.308-16.323-16.323-16.323c-59.7 0-115.827-23.249-158.042-65.463-86.571-86.572-87.991-227.793-.271-315.812 85.847-86.14 225.997-89.071 314.996-.392 43.09 42.935 66.821 99.765 66.821 160.023v92.063c0 25.284-20.57 45.854-45.854 45.854-25.285 0-45.855-20.57-45.855-45.854v-93.924c0-72.672-59.123-131.795-131.795-131.795s-131.795 59.123-131.795 131.795 59.123 131.795 131.795 131.795c39.489 0 74.973-17.462 99.148-45.064v7.193c0 43.286 35.216 78.501 78.502 78.501s78.501-35.215 78.501-78.501v-92.063c0-34.802-6.916-68.678-20.557-100.687zm-235.594 197.975c-54.671 0-99.148-44.478-99.148-99.149s44.478-99.149 99.148-99.149 99.148 44.478 99.148 99.149-44.477 99.149-99.148 99.149z" fill="#05A9EE"/></svg>