<svg height="512" viewBox="0 0 64 64" width="512" xmlns="http://www.w3.org/2000/svg"><g id="Contact"><path d="m55 32a20 20 0 1 0 -32 16v-14a2.006 2.006 0 0 1 2-2h2a12.167 12.167 0 0 0 16 0h2a2.006 2.006 0 0 1 2 2v14a19.967 19.967 0 0 0 8-16zm-20 0a8 8 0 1 1 8-8 8 8 0 0 1 -8 8z" fill="#05A9EE"/><path d="m10.56 7h16.88a1.992 1.992 0 0 0 1.94-1.51l.62-2.49h-22l.62 2.49a1.992 1.992 0 0 0 1.94 1.51z" fill="#05A9EE"/><g fill="#05A9EE"><path d="m36 11.05v-6.05a3.009 3.009 0 0 0 -3-3h-28a3.009 3.009 0 0 0 -3 3v54a3.009 3.009 0 0 0 3 3h28a3.009 3.009 0 0 0 3-3v-6.05a20.973 20.973 0 0 0 0-41.9zm-7.28-7.05-.31 1.24a1 1 0 0 1 -.97.76h-16.88a1 1 0 0 1 -.97-.76l-.31-1.24zm5.28 55a1 1 0 0 1 -1 1h-28a1 1 0 0 1 -1-1v-54a1 1 0 0 1 1-1h2.22l.43 1.73a3 3 0 0 0 2.91 2.27h16.88a3 3 0 0 0 2.91-2.27l.43-1.73h2.22a1 1 0 0 1 1 1v6.05a20.973 20.973 0 0 0 0 41.9zm12-11.54a18.86 18.86 0 0 1 -22 0v-13.46a1 1 0 0 1 1-1h1.62a13.2 13.2 0 0 0 16.76 0h1.62a1 1 0 0 1 1 1zm2-1.64v-11.82a3.009 3.009 0 0 0 -3-3h-2a1 1 0 0 0 -.68.27 11.179 11.179 0 0 1 -14.64 0 1 1 0 0 0 -.68-.27h-2a3.009 3.009 0 0 0 -3 3v11.82a19 19 0 1 1 26 0z"/><path d="m10 56h18v2h-18z"/><path d="m6 56h2v2h-2z"/><path d="m30 56h2v2h-2z"/><path d="m39.47 6.852h4v2h-4z" transform="matrix(.259 -.966 .966 .259 23.153 45.877)"/><path d="m45.5 9.349h4v2h-4z" transform="matrix(.5 -.866 .866 .5 14.791 46.314)"/><path d="m50.678 13.322h4v2h-4z" transform="matrix(.707 -.707 .707 .707 5.302 41.444)"/><path d="m54.651 18.5h4v2h-4z" transform="matrix(.866 -.5 .5 .866 -2.161 30.936)"/><path d="m57.148 24.53h4v2h-4z" transform="matrix(.966 -.259 .259 .966 -4.593 16.184)"/><path d="m58 31h4v2h-4z"/><path d="m58.148 36.47h2v4h-2z" transform="matrix(.259 -.966 .966 .259 6.676 85.642)"/><path d="m55.65 42.5h2v4h-2z" transform="matrix(.5 -.866 .866 .5 -10.212 71.313)"/><path d="m51.678 47.678h2v4h-2z" transform="matrix(.707 -.707 .707 .707 -19.699 51.799)"/><path d="m46.5 51.651h2v4h-2z" transform="matrix(.866 -.5 .5 .866 -20.461 30.936)"/><path d="m40.471 54.148h2v4h-2z" transform="matrix(.966 -.259 .259 .966 -13.123 12.651)"/><path d="m35 15a9 9 0 1 0 9 9 9.014 9.014 0 0 0 -9-9zm0 16a7 7 0 1 1 7-7 7.008 7.008 0 0 1 -7 7z"/></g></g></svg>