<svg height="480pt" viewBox="0 0 480 480" width="480pt" xmlns="http://www.w3.org/2000/svg"><path d="m416 88v96h-224v-96h-56v336c0 8.835938-7.164062 16-16 16h-80v32h432v-384zm-192 304h-32v-32h32zm0-64h-32v-32h32zm0-64h-32v-32h32zm64 128h-32v-32h32zm0-64h-32v-32h32zm0-64h-32v-32h32zm64 128h-32v-32h32zm0-64h-32v-32h32zm0-64h-32v-32h32zm64 128h-32v-32h32zm0-64h-32v-32h32zm0-64h-32v-32h32zm0 0" fill="#9bc9ff"/><path d="m120 56h-88v-36c0-6.628906-5.371094-12-12-12s-12 5.371094-12 12v404c0 8.835938 7.164062 16 16 16h96c8.824219-.027344 15.972656-7.175781 16-16v-352c0-8.835938-7.164062-16-16-16zm0 0" fill="#9bc9ff"/><path d="m120 440c8.835938 0 16-7.164062 16-16-.027344 8.824219-7.175781 15.972656-16 16zm0 0" fill="#05A9EE"/><g fill="#05A9EE"><path d="m472 80h-48v-72c-.039062-.269531-.097656-.535156-.167969-.800781-.09375-1.078125-.425781-2.121094-.96875-3.054688-.097656-.273437-.21875-.542969-.351562-.800781-.128907-.183594-.328125-.28125-.472657-.449219-.355468-.40625-.753906-.773437-1.183593-1.101562-.382813-.308594-.796875-.574219-1.230469-.800781-.449219-.226563-.921875-.402344-1.410156-.527344-.519532-.164063-1.054688-.269532-1.597656-.3125-.203126-.0625002-.410157-.1132815-.617188-.152344-.289062.0390625-.574219.0976562-.855469.175781-.519531.050781-1.03125.152344-1.527343.304688-.523438.167969-1.023438.390625-1.496094.664062-.273438.097657-.542969.214844-.800782.34375l-17.71875 12.679688-17.839843-12.679688c-2.78125-1.980469-6.511719-1.980469-9.289063 0l-17.753906 12.679688-17.75-12.671875c-2.78125-1.984375-6.515625-1.984375-9.296875 0l-17.75 12.671875-17.714844-12.671875c-2.78125-1.988282-6.519531-1.988282-9.304687 0l-17.703125 12.671875-17.792969-12.671875c-2.777344-1.984375-6.511719-1.984375-9.292969 0l-17.714843 12.671875-17.742188-12.671875c-.257812-.132813-.527344-.25-.800781-.34375-.460938-.273438-.949219-.496094-1.457031-.671875-.5-.15625-1.019532-.261719-1.542969-.3125-.28125-.074219-.566407-.1289065-.855469-.167969-.230469 0-.425781.113281-.648438.128906-.542968.050782-1.078124.160156-1.597656.320313-.972656.230469-1.875.691406-2.632812 1.34375-.4375.328125-.839844.699219-1.199219 1.109375-.144531.167968-.335937.257812-.464844.441406-.136719.257812-.253906.527344-.351562.800781-.550781.933594-.882813 1.976563-.976563 3.054688-.058594.265625-.101562.53125-.128906.800781v72h-40v-8c0-13.253906-10.746094-24-24-24h-80v-28c0-11.046875-8.953125-20-20-20s-20 8.953125-20 20v404c0 13.253906 10.746094 24 24 24h8v24c0 4.417969 3.582031 8 8 8h432c4.417969 0 8-3.582031 8-8v-384c0-4.417969-3.582031-8-8-8zm-252.976562-49.496094 17.777343-12.671875 17.742188 12.671875c2.785156 1.988282 6.523437 1.988282 9.304687 0l17.746094-12.671875 17.710938 12.671875c2.78125 1.988282 6.519531 1.988282 9.304687 0l17.710937-12.671875 17.75 12.671875c2.78125 1.984375 6.515626 1.984375 9.296876 0l17.761718-12.671875 17.792969 12.679688c2.777344 1.980469 6.507813 1.980469 9.285156 0l9.792969-6.976563v152.464844h-208v-152.441406l9.71875 6.945312c2.785156 1.988282 6.523438 1.988282 9.304688 0zm-203.023438 393.496094v-404c0-2.210938 1.789062-4 4-4s4 1.789062 4 4v68c0 4.417969 3.582031 8 8 8s8-3.582031 8-8v-24h80c4.417969 0 8 3.582031 8 8v352c0 4.417969-3.582031 8-8 8h-96c-4.417969 0-8-3.582031-8-8zm448 40h-416v-16h72c13.253906 0 24-10.746094 24-24v-328h40v80h-16v16h272v-16h-16v-80h40zm0 0"/><path d="m224 224h-32c-4.417969 0-8 3.582031-8 8v32c0 4.417969 3.582031 8 8 8h32c4.417969 0 8-3.582031 8-8v-32c0-4.417969-3.582031-8-8-8zm-8 32h-16v-16h16zm0 0"/><path d="m288 224h-32c-4.417969 0-8 3.582031-8 8v32c0 4.417969 3.582031 8 8 8h32c4.417969 0 8-3.582031 8-8v-32c0-4.417969-3.582031-8-8-8zm-8 32h-16v-16h16zm0 0"/><path d="m352 224h-32c-4.417969 0-8 3.582031-8 8v32c0 4.417969 3.582031 8 8 8h32c4.417969 0 8-3.582031 8-8v-32c0-4.417969-3.582031-8-8-8zm-8 32h-16v-16h16zm0 0"/><path d="m224 288h-32c-4.417969 0-8 3.582031-8 8v32c0 4.417969 3.582031 8 8 8h32c4.417969 0 8-3.582031 8-8v-32c0-4.417969-3.582031-8-8-8zm-8 32h-16v-16h16zm0 0"/><path d="m288 288h-32c-4.417969 0-8 3.582031-8 8v32c0 4.417969 3.582031 8 8 8h32c4.417969 0 8-3.582031 8-8v-32c0-4.417969-3.582031-8-8-8zm-8 32h-16v-16h16zm0 0"/><path d="m352 288h-32c-4.417969 0-8 3.582031-8 8v32c0 4.417969 3.582031 8 8 8h32c4.417969 0 8-3.582031 8-8v-32c0-4.417969-3.582031-8-8-8zm-8 32h-16v-16h16zm0 0"/><path d="m224 352h-32c-4.417969 0-8 3.582031-8 8v32c0 4.417969 3.582031 8 8 8h32c4.417969 0 8-3.582031 8-8v-32c0-4.417969-3.582031-8-8-8zm-8 32h-16v-16h16zm0 0"/><path d="m288 352h-32c-4.417969 0-8 3.582031-8 8v32c0 4.417969 3.582031 8 8 8h32c4.417969 0 8-3.582031 8-8v-32c0-4.417969-3.582031-8-8-8zm-8 32h-16v-16h16zm0 0"/><path d="m352 352h-32c-4.417969 0-8 3.582031-8 8v32c0 4.417969 3.582031 8 8 8h32c4.417969 0 8-3.582031 8-8v-32c0-4.417969-3.582031-8-8-8zm-8 32h-16v-16h16zm0 0"/><path d="m416 224h-32c-4.417969 0-8 3.582031-8 8v32c0 4.417969 3.582031 8 8 8h32c4.417969 0 8-3.582031 8-8v-32c0-4.417969-3.582031-8-8-8zm-8 32h-16v-16h16zm0 0"/><path d="m416 288h-32c-4.417969 0-8 3.582031-8 8v32c0 4.417969 3.582031 8 8 8h32c4.417969 0 8-3.582031 8-8v-32c0-4.417969-3.582031-8-8-8zm-8 32h-16v-16h16zm0 0"/><path d="m416 352h-32c-4.417969 0-8 3.582031-8 8v32c0 4.417969 3.582031 8 8 8h32c4.417969 0 8-3.582031 8-8v-32c0-4.417969-3.582031-8-8-8zm-8 32h-16v-16h16zm0 0"/><path d="m216 48h16v16h-16zm0 0"/><path d="m248 48h16v16h-16zm0 0"/><path d="m280 48h16v16h-16zm0 0"/><path d="m312 48h16v16h-16zm0 0"/><path d="m344 48h16v16h-16zm0 0"/><path d="m376 48h16v16h-16zm0 0"/><path d="m216 144h16v16h-16zm0 0"/><path d="m248 144h16v16h-16zm0 0"/><path d="m280 144h16v16h-16zm0 0"/><path d="m312 144h16v16h-16zm0 0"/><path d="m344 144h16v16h-16zm0 0"/><path d="m376 144h16v16h-16zm0 0"/><path d="m216 80h176v16h-176zm0 0"/><path d="m216 112h112v16h-112zm0 0"/></g></svg>