<svg id="Layer_1" enable-background="new 0 0 480.165 480.165" height="512" viewBox="0 0 480.165 480.165" width="512" xmlns="http://www.w3.org/2000/svg"><circle cx="225" cy="240.083" fill="#e8f3ff" r="216.666"/><path d="m225 240.083v216.666c6.502-3.981 121.405-77.168 121.405-216.666z" fill="#a2d0ff"/><path d="m225 23.417v216.666h121.405c0-139.498-114.903-212.685-121.405-216.666z" fill="#b9dcff"/><path d="m225 23.417c6.502 3.981 121.405 77.168 121.405 216.666h95.261c0-119.66-97.006-216.666-216.666-216.666z" fill="#a2d0ff"/><path d="m346.405 240.083c0 139.498-114.904 212.685-121.405 216.666 119.66 0 216.666-97.007 216.666-216.666z" fill="#8bc4ff"/><path d="m225 240.083v216.666c-6.502-3.981-121.405-77.168-121.405-216.666z" fill="#b9dcff"/><path d="m225 23.417v216.666h-121.405c0-139.498 114.903-212.685 121.405-216.666z" fill="#d1e7ff"/><path d="m103.595 240.083c0 139.498 114.904 212.685 121.405 216.666-119.66 0-216.666-97.007-216.666-216.666z" fill="#d1e7ff"/><path d="m421.95 169.985c5.862-5.861 5.864-15.349.001-21.213.002.003-.001-.001-.001-.001-2.833-2.833-6.599-4.394-10.606-4.394-13.416 0-19.965 16.25-10.606 25.607 5.848 5.848 15.364 5.849 21.212.001zm26.164-47.377c3.125 3.125 3.124 8.19 0 11.314-3.125 3.124-8.189 3.123-11.313 0-14.069-14.069-36.84-14.072-50.911-.001-3.125 3.125-8.19 3.124-11.314.001-3.124-3.124-3.125-8.189 0-11.313 20.319-20.322 53.213-20.326 73.538-.001zm24.042-16.041c-2.048 0-4.095-.781-5.657-2.343-30.482-30.484-79.822-30.489-110.309 0-3.124 3.123-8.189 3.123-11.313 0-3.125-3.124-3.125-8.189 0-11.314 36.738-36.738 96.196-36.739 132.936 0 5.055 5.056 1.405 13.657-5.657 13.657zm-33.893 92.409c-4.367.67-7.364 4.754-6.693 9.121 19.097 124.415-74.947 236.14-198.57 240.818v-200.832h105.451c-2.414 72.644-37.224 125.893-66.601 158.158-4.696 5.157-.966 13.386 5.913 13.386 2.173 0 4.339-.881 5.918-2.614 31.284-34.359 68.374-91.177 70.784-168.93h38.535c4.418 0 8-3.582 8-8s-3.582-8-8-8h-38.54c-3.168-103.599-67.351-170.297-102.63-199.271 26.434 3.414 52.061 11.841 75.281 24.869 3.854 2.165 8.73.791 10.892-3.063 2.162-3.853.791-8.729-3.063-10.891-33.399-18.739-71.416-28.644-109.94-28.644-124.357 0-225 100.632-225 225 0 124.333 100.605 224.985 224.973 225 137.67 0 243.437-122.456 222.411-259.413-.671-4.368-4.756-7.368-9.121-6.694zm-221.263 242.802c-11.814-8.892-30.589-24.722-49.038-47.351-35.746-43.844-54.694-93.043-56.414-146.345h105.452zm65.075-356.025c35.726 43.845 54.661 93.039 56.378 146.33h-105.453v-193.733c11.809 8.889 30.609 24.739 49.075 47.403zm-65.075-54.502v200.832h-105.449c2.34-70.248 35.088-122.213 62.733-153.83 2.908-3.326 2.569-8.38-.756-11.288-3.327-2.909-8.38-2.57-11.289.757-29.454 33.686-64.364 89.157-66.701 164.361h-79.37c4.121-108.893 91.939-196.712 200.832-200.832zm-200.832 216.832h79.372c3.176 103.641 67.408 170.334 102.698 199.292-100.06-12.845-178.189-96.727-182.07-199.292z" fill="#05A9EE"/></svg>