<svg height="512" viewBox="0 0 64 64" width="512" xmlns="http://www.w3.org/2000/svg"><path d="m5 13h14v44h-14z" fill="#05A9EE"/><path d="m19 8v49h8v-8a5 5 0 1 1 10 0v8h8v-49zm5 8.5a2.5 2.5 0 1 1 5 0v3.5h-5zm0 10a2.5 2.5 0 1 1 5 0v3.5h-5zm0 13.5v-3.5a2.5 2.5 0 1 1 5 0v3.5zm11 0v-3.5a2.5 2.5 0 1 1 5 0v3.5zm0-10v-3.5a2.5 2.5 0 1 1 5 0v3.5zm0-10v-3.5a2.5 2.5 0 1 1 5 0v3.5z" fill="#05A9EE"/><path d="m45 13h14v44h-14z" fill="#05A9EE"/><g fill="#05A9EE"><path d="m61 56h-1v-43a1 1 0 0 0 -1-1h-13v-9a1 1 0 0 0 -1-1h-26a1 1 0 0 0 -1 1v9h-13a1 1 0 0 0 -1 1v43h-1a1 1 0 0 0 -1 1v4a1 1 0 0 0 1 1h58a1 1 0 0 0 1-1v-4a1 1 0 0 0 -1-1zm-15-42h12v42h-12zm-26-10h24v3h-24zm0 5h24v47h-6v-7a6 6 0 0 0 -12 0v7h-6zm16 40v7h-8v-7a4 4 0 0 1 8 0zm-30-35h12v42h-12zm54 46h-56v-2h56z"/><path d="m8 19h8v2h-8z"/><path d="m8 29h8v2h-8z"/><path d="m8 39h8v2h-8z"/><path d="m48 19h8v2h-8z"/><path d="m48 29h8v2h-8z"/><path d="m48 39h8v2h-8z"/><path d="m29 50h2v2h-2z"/><path d="m30 29v-2.5a3.5 3.5 0 0 0 -7 0v2.5h-1v2h9v-2zm-2 0h-3v-2.5a1.5 1.5 0 0 1 3 0z"/><path d="m41 29v-2.5a3.5 3.5 0 0 0 -7 0v2.5h-1v2h9v-2zm-2 0h-3v-2.5a1.5 1.5 0 0 1 3 0z"/><path d="m30 19v-2.5a3.5 3.5 0 0 0 -7 0v2.5h-1v2h9v-2zm-2 0h-3v-2.5a1.5 1.5 0 0 1 3 0z"/><path d="m41 19v-2.5a3.5 3.5 0 0 0 -7 0v2.5h-1v2h9v-2zm-2 0h-3v-2.5a1.5 1.5 0 0 1 3 0z"/><path d="m30 39v-2.5a3.5 3.5 0 0 0 -7 0v2.5h-1v2h9v-2zm-2 0h-3v-2.5a1.5 1.5 0 0 1 3 0z"/><path d="m41 39v-2.5a3.5 3.5 0 0 0 -7 0v2.5h-1v2h9v-2zm-2 0h-3v-2.5a1.5 1.5 0 0 1 3 0z"/></g></svg>