<svg height="512" viewBox="0 0 60 60" width="512" xmlns="http://www.w3.org/2000/svg"><g id="Page-1" fill="none" fill-rule="evenodd"><g id="003---Call" fill-rule="nonzero"><path id="Shape" d="m25.017 34.983c-5.536-5.536-6.786-11.072-7.068-13.29-.0787994-.6132828.1322481-1.2283144.571-1.664l4.48-4.478c.6590136-.6586066.7759629-1.685024.282-2.475l-7.133-11.076c-.5464837-.87475134-1.6685624-1.19045777-2.591-.729l-11.451 5.393c-.74594117.367308-1.18469338 1.15985405-1.1 1.987.6 5.7 3.085 19.712 16.855 33.483s27.78 16.255 33.483 16.855c.827146.0846934 1.619692-.3540588 1.987-1.1l5.393-11.451c.4597307-.9204474.146114-2.0395184-.725-2.587l-11.076-7.131c-.7895259-.4944789-1.8158967-.3783642-2.475.28l-4.478 4.48c-.4356856.4387519-1.0507172.6497994-1.664.571-2.218-.282-7.754-1.532-13.29-7.068z" fill="#05A9EE"/><path id="Shape" d="m58 43.851-11.076-7.131c-.7895259-.4944789-1.8158967-.3783642-2.475.28l-.034.034 10.585 6.817c.8747513.5464837 1.1904578 1.6685624.729 2.591l-5.393 11.451c-.1835588.3674398-.4757969.6694541-.837.865.687.1 1.307.174 1.85.231.827146.0846934 1.619692-.3540588 1.987-1.1l5.393-11.451c.4589971-.9214386.1435714-2.0407889-.729-2.587z" fill="#05A9EE"/><path id="Shape" d="m47 32c-1.1045695 0-2-.8954305-2-2-.0093685-8.2803876-6.7196124-14.9906315-15-15-1.1045695 0-2-.8954305-2-2s.8954305-2 2-2c10.4886126.0115735 18.9884265 8.5113874 19 19 0 1.1045695-.8954305 2-2 2z" fill="#05A9EE"/><path id="Shape" d="m57 32c-1.1045695 0-2-.8954305-2-2-.0154309-13.800722-11.199278-24.9845691-25-25-1.1045695 0-2-.8954305-2-2s.8954305-2 2-2c16.008947.01763587 28.9823641 12.991053 29 29 0 .530433-.2107137 1.0391408-.5857864 1.4142136-.3750728.3750727-.8837806.5857864-1.4142136.5857864z" fill="#05A9EE"/><path id="Shape" d="m30 1c-.2089737.0027573-.4161978.03853215-.614.106 15.0296312 1.25660989 26.5942326 13.8119414 26.614 28.894-.0017539.4829522-.1795198.948699-.5 1.31.5448575.6313058 1.425284.8564073 2.2062875.5640888.7810036-.2923184 1.2972639-1.0401799 1.2937125-1.8740888-.0176359-16.008947-12.991053-28.98236413-29-29z" fill="#05A9EE"/><path id="Shape" d="m51.349 58.989c.4051051.0427222.8134963-.041122 1.169-.24-24.144-3.517-45.956-25.867-48.507-50.098-.08469338-.82714595.35405883-1.619692 1.1-1.987l10.715-5.048c-.6083504-.58024714-1.5146288-.71810696-2.268-.345l-11.451 5.393c-.74594117.367308-1.18469338 1.15985405-1.1 1.987 2.619 24.842 25.479 47.718 50.342 50.338z" fill="#05A9EE"/><path id="Shape" d="m3.532 16.235-1.932.531c-.72605193-2.6238637-1.23575929-5.3028374-1.524-8.01l1.989-.21c.27752152 2.5988625.76817316 5.1705192 1.467 7.689z" fill="#05A9EE"/><g fill="#428dff"><path id="Shape" d="m1.678 13.608c-.55228475.0027614-1.00223858-.4427153-1.005-.995s.44271525-1.0022386.995-1.005h.01c.55228475 0 1 .4477153 1 1s-.44771525 1-1 1z"/><path id="Shape" d="m1.176 9.646c.26376653-.02795986.50561937-.15956608.67234331-.36586118.16672395-.20629509.24465889-.47037678.21665669-.73413882-.0443371-.40404703.16586474-.79339817.528-.978l11.472-5.4c.4652095-.23144097 1.0301604-.06803978 1.3.376l7.123 11.065c.2492856.3941228.1910632.9085594-.14 1.237l-4.478 4.478c-.6597722.6541696-.9766788 1.5786346-.857 2.5.286 2.245 1.574 8.092 7.354 13.87s11.625 7.067 13.87 7.353c.9210929.1188365 1.8450573-.1975289 2.5-.856l4.479-4.478c.3238956-.3288864.8320975-.3902854 1.225-.148l11.089 7.135c.4449049.2779168.5994348.8523839.354 1.316l-5.384 11.429c-.1776027.3759641-.5748758.5971182-.988.55-8.317-.876-20.773-4.461-32.88-16.568-7.119354-6.9560168-12.32076951-15.6334245-15.1-25.191-.15110942-.5233694-.6897164-.8329137-1.218-.7-.26007604.0654571-.48246834.2336277-.61629691.4660371-.13382856.2324093-.16764156.5091698-.09370309.7669629 2.87187753 9.8908166 8.25072966 18.8717601 15.615 26.072 12.521 12.521 25.447 16.233 34.081 17.143.1029703.0109061.2064541.0162472.31.016 1.142176-.0073448 2.182757-.6576112 2.69-1.681l5.382-11.43c.6966919-1.378254.2274925-3.0603468-1.082-3.879l-11.087-7.138c-1.1848015-.7461107-2.7290251-.568107-3.713.428l-4.479 4.478c-.217298.2189624-.5239428.3246256-.83.286-2.042-.26-7.367-1.44-12.709-6.783s-6.522-10.673-6.782-12.714c-.039478-.3066324.0667058-.6140844.287-.831l4.478-4.478c.9945715-.9899863 1.1671616-2.5383067.415-3.723l-7.123-11.065c-.8107574-1.31001207-2.4859449-1.78677953-3.865-1.1l-11.472 5.399c-1.11427502.55853637-1.76827028 1.74678687-1.644 2.987.02771365.26394748.15921486.50605237.3655381.67298662.20632323.16693426.47054366.24500416.7344619.21701338z"/><path id="Shape" d="m30 16c7.7285595.0082673 13.9917327 6.2714405 14 14 0 1.6568542 1.3431458 3 3 3s3-1.3431458 3-3c-.0126747-11.0404407-8.9595593-19.9873253-20-20-1.6568542 0-2.9999999 1.3431458-2.9999999 3s1.3431457 3 2.9999999 3zm0-4c9.9363282.0115721 17.9884279 8.0636718 18 18 0 .5522847-.4477153 1-1 1s-1-.4477153-1-1c-.0104696-8.8322157-7.1677843-15.9895304-16-16-.5522847 0-1-.4477153-1-1s.4477153-1 1-1z"/><path id="Shape" d="m30 6c13.2484376.01542952 23.9845705 10.7515624 24 24 0 1.6568542 1.3431458 3 3 3s3-1.3431458 3-3c-.018737-16.5607751-13.4392249-29.98126296-30-30-1.6568542 0-3 1.34314575-3 3s1.3431458 3 3 3zm0-4c15.4566626.01763454 27.9823655 12.5433374 28 28 0 .5522847-.4477153 1-1 1s-1-.4477153-1-1c-.016532-14.3525501-11.6474499-25.98346796-26-26-.5522847 0-1-.44771525-1-1s.4477153-1 1-1z"/></g></g></g></svg>